<svg width="236" height="140" viewBox="0 0 236 140" fill="none" xmlns="http://www.w3.org/2000/svg">
<path d="M166 0H70C51.4348 2.76642e-07 33.6301 7.37498 20.5025 20.5025C7.37498 33.6301 0 51.4348 0 70C0 88.5652 7.37498 106.37 20.5025 119.497C33.6301 132.625 51.4348 140 70 140H166C184.565 140 202.37 132.625 215.497 119.497C228.625 106.37 236 88.5652 236 70C236 51.4348 228.625 33.6301 215.497 20.5025C202.37 7.37498 184.565 2.76642e-07 166 0V0ZM166 128H70C54.6174 128 39.8649 121.889 28.9878 111.012C18.1107 100.135 12 85.3826 12 70C12 54.6174 18.1107 39.8649 28.9878 28.9878C39.8649 18.1107 54.6174 12 70 12H166C181.383 12 196.135 18.1107 207.012 28.9878C217.889 39.8649 224 54.6174 224 70C224 85.3826 217.889 100.135 207.012 111.012C196.135 121.889 181.383 128 166 128ZM70 32C62.4843 32 55.1374 34.2287 48.8883 38.4042C42.6393 42.5796 37.7687 48.5144 34.8926 55.458C32.0164 62.4016 31.2639 70.0422 32.7302 77.4134C34.1964 84.7847 37.8155 91.5557 43.1299 96.8701C48.4443 102.184 55.2153 105.804 62.5866 107.27C69.9578 108.736 77.5984 107.984 84.542 105.107C91.4856 102.231 97.4204 97.3607 101.596 91.1117C105.771 84.8626 108 77.5157 108 70C108 59.9218 103.996 50.2563 96.8701 43.1299C89.7437 36.0036 80.0782 32 70 32V32ZM70 96C64.8577 96 59.8309 94.4751 55.5552 91.6182C51.2795 88.7613 47.947 84.7006 45.9791 79.9498C44.0113 75.1989 43.4964 69.9712 44.4996 64.9277C45.5028 59.8841 47.9791 55.2514 51.6152 51.6152C55.2514 47.9791 59.8841 45.5028 64.9277 44.4996C69.9712 43.4964 75.1989 44.0113 79.9498 45.9791C84.7006 47.947 88.7613 51.2795 91.6182 55.5552C94.4751 59.8309 96 64.8577 96 70C95.9737 76.8875 93.2259 83.4854 88.3557 88.3557C83.4854 93.2259 76.8875 95.9737 70 96Z" fill="black"/>
</svg>
