<svg width="236" height="140" viewBox="0 0 236 140" fill="black" xmlns="http://www.w3.org/2000/svg">
<path class="outline" fill-rule="evenodd" clip-rule="evenodd" d="M70 0H166C184.565 2.76642e-07 202.37 7.37498 215.497 20.5025C228.625 33.6301 236 51.4348 236 70C236 88.5652 228.625 106.37 215.497 119.497C202.37 132.625 184.565 140 166 140H70C51.4348 140 33.6301 132.625 20.5025 119.497C7.37498 106.37 0 88.5652 0 70C0 51.4348 7.37498 33.6301 20.5025 20.5025C33.6301 7.37498 51.4348 2.76642e-07 70 0ZM70 128H166C181.383 128 196.135 121.889 207.012 111.012C217.889 100.135 224 85.3826 224 70C224 54.6174 217.889 39.8649 207.012 28.9878C196.135 18.1107 181.383 12 166 12H70C54.6174 12 39.8649 18.1107 28.9878 28.9878C18.1107 39.8649 12 54.6174 12 70C12 85.3826 18.1107 100.135 28.9878 111.012C39.8649 121.889 54.6174 128 70 128Z"/>
<path class="circle" fill-rule="evenodd" clip-rule="evenodd" d="M70 32C62.4843 32 55.1374 34.2287 48.8883 38.4042C42.6393 42.5796 37.7687 48.5144 34.8926 55.458C32.0164 62.4016 31.2639 70.0422 32.7302 77.4134C34.1964 84.7847 37.8155 91.5557 43.1299 96.8701C48.4443 102.184 55.2153 105.804 62.5866 107.27C69.9578 108.736 77.5984 107.984 84.542 105.107C91.4856 102.231 97.4204 97.3607 101.596 91.1117C105.771 84.8626 108 77.5157 108 70C108 59.9218 103.996 50.2563 96.8701 43.1299C89.7437 36.0036 80.0782 32 70 32ZM55.5552 91.6182C59.8309 94.4751 64.8577 96 70 96C76.8875 95.9737 83.4854 93.2259 88.3557 88.3557C93.2259 83.4854 95.9737 76.8875 96 70C96 64.8577 94.4751 59.8309 91.6182 55.5552C88.7613 51.2795 84.7006 47.947 79.9498 45.9791C75.1989 44.0113 69.9712 43.4964 64.9277 44.4996C59.8841 45.5028 55.2514 47.9791 51.6152 51.6152C47.9791 55.2514 45.5028 59.8841 44.4996 64.9277C43.4964 69.9712 44.0113 75.1989 45.9791 79.9498C47.947 84.7006 51.2795 88.7613 55.5552 91.6182Z"/>
</svg>
