<svg width="52" height="31" viewBox="0 0 52 31" fill="none" xmlns="http://www.w3.org/2000/svg">
<path d="M36.0201 0.789062H15.3744C11.3818 0.789063 7.55276 2.36695 4.72956 5.1756C1.90637 7.98425 0.320313 11.7936 0.320312 15.7656C0.320313 19.7377 1.90637 23.547 4.72956 26.3557C7.55276 29.1643 11.3818 30.7422 15.3744 30.7422H36.0201C40.0127 30.7422 43.8418 29.1643 46.665 26.3557C49.4882 23.547 51.0742 19.7377 51.0742 15.7656C51.0742 11.7936 49.4882 7.98425 46.665 5.1756C43.8418 2.36695 40.0127 0.789063 36.0201 0.789062ZM36.0201 28.1748H15.3744C12.0663 28.1748 8.89362 26.8674 6.5544 24.5402C4.21518 22.2131 2.90102 19.0567 2.90102 15.7656C2.90102 12.4745 4.21518 9.3182 6.5544 6.99103C8.89362 4.66386 12.0663 3.35647 15.3744 3.35647H36.0201C39.3283 3.35647 42.5009 4.66386 44.8401 6.99103C47.1794 9.3182 48.4935 12.4745 48.4935 15.7656C48.4935 19.0567 47.1794 22.2131 44.8401 24.5402C42.5009 26.8674 39.3283 28.1748 36.0201 28.1748ZM36.0201 7.63549C34.4038 7.63549 32.8238 8.11231 31.4798 9.00566C30.1359 9.89902 29.0885 11.1688 28.4699 12.6544C27.8514 14.1399 27.6896 15.7746 28.0049 17.3517C28.3202 18.9288 29.0985 20.3775 30.2414 21.5145C31.3844 22.6515 32.8405 23.4258 34.4258 23.7395C36.011 24.0532 37.6542 23.8922 39.1475 23.2769C40.6408 22.6615 41.9171 21.6195 42.8151 20.2825C43.713 18.9455 44.1923 17.3736 44.1923 15.7656C44.1923 13.6094 43.3313 11.5414 41.7987 10.0168C40.2661 8.49206 38.1875 7.63549 36.0201 7.63549ZM36.0201 21.3283C34.9142 21.3283 33.8331 21.0021 32.9136 20.3909C31.9941 19.7796 31.2774 18.9108 30.8542 17.8944C30.431 16.8779 30.3203 15.7595 30.536 14.6804C30.7518 13.6013 31.2843 12.6101 32.0663 11.8322C32.8483 11.0542 33.8446 10.5244 34.9292 10.3098C36.0139 10.0951 37.1382 10.2053 38.1599 10.6263C39.1816 11.0474 40.0549 11.7604 40.6693 12.6751C41.2837 13.5899 41.6116 14.6654 41.6116 15.7656C41.606 17.2392 41.015 18.6508 39.9676 19.6928C38.9203 20.7348 37.5013 21.3227 36.0201 21.3283Z" fill="black"/>
</svg>
